<svg height="512pt" viewBox="0 -84 512 512" width="512pt" xmlns="http://www.w3.org/2000/svg"><path d="m467.691406 0h-423.382812c-24.433594 0-44.308594 19.875-44.308594 44.308594v256c0 24.429687 19.875 44.308594 44.308594 44.308594h423.382812c24.433594 0 44.308594-19.878907 44.308594-44.308594v-256c0-24.433594-19.875-44.308594-44.308594-44.308594zm-423.382812 29.539062h423.382812c8.144532 0 14.769532 6.625 14.769532 14.769532v24.613281h-452.921876v-24.613281c0-8.144532 6.625-14.769532 14.769532-14.769532zm438.152344 98.460938h-452.921876v-29.539062h452.921876zm-14.769532 187.078125h-423.382812c-8.144532 0-14.769532-6.625-14.769532-14.769531v-142.769532h452.921876v142.769532c0 8.144531-6.625 14.769531-14.769532 14.769531zm0 0"/><path d="m403.691406 196.921875c-11.339844 0-21.691406 4.289063-29.539062 11.320313-7.84375-7.03125-18.195313-11.320313-29.535156-11.320313-24.433594 0-44.308594 19.878906-44.308594 44.308594 0 24.429687 19.875 44.308593 44.308594 44.308593 11.339843 0 21.691406-4.289062 29.535156-11.320312 7.847656 7.035156 18.199218 11.320312 29.539062 11.320312 24.433594 0 44.308594-19.878906 44.308594-44.308593 0-24.429688-19.875-44.308594-44.308594-44.308594zm-59.074218 59.078125c-8.144532 0-14.769532-6.625-14.769532-14.769531s6.625-14.769531 14.769532-14.769531c8.140624 0 14.765624 6.625 14.765624 14.769531s-6.625 14.769531-14.765624 14.769531zm59.074218 0c-8.144531 0-14.769531-6.625-14.769531-14.769531s6.625-14.769531 14.769531-14.769531c8.144532 0 14.769532 6.625 14.769532 14.769531s-6.625 14.769531-14.769532 14.769531zm0 0"/><path d="m137.847656 226.460938h-59.078125c-8.15625 0-14.769531 6.613281-14.769531 14.769531s6.613281 14.769531 14.769531 14.769531h59.078125c8.15625 0 14.769532-6.613281 14.769532-14.769531s-6.613282-14.769531-14.769532-14.769531zm0 0"/></svg>