<svg xmlns="http://www.w3.org/2000/svg" style="display: none;"><symbol id="plus" viewBox="0 0 512.001 512.001"><title>plus</title><g> <g> <path d="M437.02,74.981c-48.352-48.352-112.638-74.98-181.018-74.98S123.334,26.63,74.982,74.981 C26.63,123.333,0,187.621,0,256.001C0,324.38,26.629,388.667,74.981,437.02C123.334,485.372,187.622,512,256.002,512 c68.379,0,132.666-26.628,181.018-74.98c48.352-48.352,74.981-112.639,74.981-181.019C512,187.621,485.372,123.333,437.02,74.981z M256.002,482C131.384,482,30,380.617,30,256.001c0.001-124.616,101.385-226,226.002-226c124.615,0,225.998,101.383,225.999,226 C482,380.617,380.617,482,256.002,482z"/> </g> </g><g> <g> <path d="M400.6,241.001H271l0.001-129.601c0-8.284-6.716-15-15-15s-15,6.716-15,15L241,241.001H111.401c-8.284,0-15,6.716-15,15 s6.716,15,15,15H241v129.6c0,8.284,6.716,15,15,15s15-6.716,15-15v-129.6h129.6c8.284,0,15-6.716,15-15 S408.884,241.001,400.6,241.001z"/> </g> </g></symbol><symbol id="minus" viewBox="0 0 512 512"><title>minus</title><g> <g> <path d="M491.841,156.427c-19.471-45.946-51.936-85.013-92.786-112.637C358.217,16.166,308.893-0.007,256,0 c-35.254-0.002-68.946,7.18-99.571,20.158C110.484,39.63,71.416,72.093,43.791,112.943C16.167,153.779-0.007,203.104,0,256 c-0.002,35.255,7.181,68.948,20.159,99.573c19.471,45.946,51.937,85.013,92.786,112.637C153.783,495.834,203.107,512.007,256,512 c35.253,0.002,68.946-7.18,99.571-20.158c45.945-19.471,85.013-51.935,112.638-92.785C495.834,358.22,512.007,308.894,512,256 C512.002,220.744,504.819,187.052,491.841,156.427z M460.413,342.257c-16.851,39.781-45.045,73.723-80.476,97.676 c-35.443,23.953-78.02,37.926-123.936,37.933c-30.619-0.002-59.729-6.218-86.255-17.454 c-39.781-16.851-73.724-45.044-97.677-80.475C48.114,344.495,34.14,301.917,34.133,256c0.002-30.62,6.219-59.731,17.454-86.257 c16.851-39.781,45.045-73.724,80.476-97.676C167.506,48.113,210.084,34.14,256,34.133c30.619,0.002,59.729,6.218,86.255,17.454 c39.781,16.85,73.724,45.044,97.677,80.475c23.953,35.443,37.927,78.02,37.934,123.939 C477.864,286.62,471.648,315.731,460.413,342.257z"/> </g> </g><g> <g> <path d="M389.594,239.301H122.406c-9.222,0-16.699,7.477-16.699,16.699s7.477,16.699,16.699,16.699h267.189 c9.222,0,16.699-7.477,16.699-16.699S398.817,239.301,389.594,239.301z"/> </g> </g></symbol><symbol id="star" viewBox="0 0 24 24"><title>star</title><path d="m23.363 8.584-7.378-1.127-3.307-7.044c-.247-.526-1.11-.526-1.357 0l-3.306 7.044-7.378 1.127c-.606.093-.848.83-.423 1.265l5.36 5.494-1.267 7.767c-.101.617.558 1.08 1.103.777l6.59-3.642 6.59 3.643c.54.3 1.205-.154 1.103-.777l-1.267-7.767 5.36-5.494c.425-.436.182-1.173-.423-1.266z" fill="#ffc107"/></symbol><symbol id="account" viewBox="0 0 512 512"><title>account</title><path d="m512 256c0-141.488281-114.496094-256-256-256-141.488281 0-256 114.496094-256 256 0 140.234375 113.539062 256 256 256 141.875 0 256-115.121094 256-256zm-256-226c124.617188 0 226 101.382812 226 226 0 45.585938-13.558594 89.402344-38.703125 126.515625-100.96875-108.609375-273.441406-108.804687-374.59375 0-25.144531-37.113281-38.703125-80.929687-38.703125-126.515625 0-124.617188 101.382812-226 226-226zm-168.585938 376.5c89.773438-100.695312 247.421876-100.671875 337.167969 0-90.074219 100.773438-247.054687 100.804688-337.167969 0zm0 0"/><path d="m256 271c49.625 0 90-40.375 90-90v-30c0-49.625-40.375-90-90-90s-90 40.375-90 90v30c0 49.625 40.375 90 90 90zm-60-120c0-33.085938 26.914062-60 60-60s60 26.914062 60 60v30c0 33.085938-26.914062 60-60 60s-60-26.914062-60-60zm0 0"/></symbol><symbol id="smart-cart" viewBox="-3 0 512 512"><title>smart-cart</title><path d="m494.929688 97.148438c-9.492188-10.84375-23.023438-16.816407-38.097657-16.816407h-364.429687l-3.667969-27.5c-3.953125-29.625-24.578125-52.832031-46.957031-52.832031h-26.777344c-8.285156 0-15 6.714844-15 15s6.714844 15 15 15h26.777344c4.8125 0 15.003906 10.175781 17.21875 26.796875l42.9375 322.039063c1.890625 14.195312 9.183594 27.484374 20.535156 37.421874 8.417969 7.371094 18.367188 12.273438 28.789062 14.324219-4.246093 7.808594-6.660156 16.753907-6.660156 26.25 0 30.421875 24.75 55.167969 55.167969 55.167969s55.167969-24.746094 55.167969-55.167969c0-9.0625-2.210938-17.613281-6.101563-25.164062h78.601563c-3.890625 7.550781-6.101563 16.101562-6.101563 25.164062 0 30.421875 24.75 55.167969 55.167969 55.167969s55.167969-24.746094 55.167969-55.167969c0-9.0625-2.210938-17.613281-6.101563-25.164062h39.300782c8.28125 0 15-6.71875 15-15 0-8.285157-6.71875-15-15-15h-302.589844c-14.65625 0-28.671875-12.273438-30.609375-26.800781l-3.136719-23.535157h116.746094c.003906 0 .007812.003907.011718.003907.003907 0 .007813-.003907.015626-.003907h96.367187c.003906 0 .007813.003907.015625.003907.003906 0 .003906-.003907.007812-.003907h83.003907c14.320312 0 28.457031-5.472656 39.808593-15.40625 11.351563-9.9375 18.644532-23.230469 20.535157-37.425781l21.515625-161.367188c1.992187-14.941406-2.136719-29.140624-11.628906-39.984374zm-269.996094 359.683593c0 13.878907-11.289063 25.167969-25.167969 25.167969-13.875 0-25.167969-11.289062-25.167969-25.167969 0-13.875 11.292969-25.164062 25.167969-25.164062 13.878906 0 25.167969 11.289062 25.167969 25.164062zm176.734375 0c0 13.878907-11.289063 25.167969-25.167969 25.167969s-25.167969-11.289062-25.167969-25.167969c0-13.875 11.289063-25.164062 25.167969-25.164062s25.167969 11.289062 25.167969 25.164062zm70.6875-339.921875c3.714843 4.242188 5.300781 10.011719 4.464843 16.253906l-9.019531 67.667969h-102.0625l6.03125-90.5h85.0625c6.300781 0 11.8125 2.335938 15.523438 6.578125zm-213.019531 204.421875-6.035157-90.5h80.371094l-6.035156 90.5zm-8.035157-120.5-6.03125-90.5h96.433594l-6.03125 90.5zm-36.097656-90.5 6.03125 90.5h-112.769531l-12.066406-90.5zm-102.738281 120.5h110.769531l6.035156 90.5h-104.738281zm312.234375 90.5h-66.996094l6.035156-90.5h100.0625l-8.492187 63.703125c-1.9375 14.527344-15.957032 26.796875-30.609375 26.796875zm0 0"/></symbol><symbol id="card" viewBox="0 -84 512 512"><title>card</title><path d="m467.691406 0h-423.382812c-24.433594 0-44.308594 19.875-44.308594 44.308594v256c0 24.429687 19.875 44.308594 44.308594 44.308594h423.382812c24.433594 0 44.308594-19.878907 44.308594-44.308594v-256c0-24.433594-19.875-44.308594-44.308594-44.308594zm-423.382812 29.539062h423.382812c8.144532 0 14.769532 6.625 14.769532 14.769532v24.613281h-452.921876v-24.613281c0-8.144532 6.625-14.769532 14.769532-14.769532zm438.152344 98.460938h-452.921876v-29.539062h452.921876zm-14.769532 187.078125h-423.382812c-8.144532 0-14.769532-6.625-14.769532-14.769531v-142.769532h452.921876v142.769532c0 8.144531-6.625 14.769531-14.769532 14.769531zm0 0"/><path d="m403.691406 196.921875c-11.339844 0-21.691406 4.289063-29.539062 11.320313-7.84375-7.03125-18.195313-11.320313-29.535156-11.320313-24.433594 0-44.308594 19.878906-44.308594 44.308594 0 24.429687 19.875 44.308593 44.308594 44.308593 11.339843 0 21.691406-4.289062 29.535156-11.320312 7.847656 7.035156 18.199218 11.320312 29.539062 11.320312 24.433594 0 44.308594-19.878906 44.308594-44.308593 0-24.429688-19.875-44.308594-44.308594-44.308594zm-59.074218 59.078125c-8.144532 0-14.769532-6.625-14.769532-14.769531s6.625-14.769531 14.769532-14.769531c8.140624 0 14.765624 6.625 14.765624 14.769531s-6.625 14.769531-14.765624 14.769531zm59.074218 0c-8.144531 0-14.769531-6.625-14.769531-14.769531s6.625-14.769531 14.769531-14.769531c8.144532 0 14.769532 6.625 14.769532 14.769531s-6.625 14.769531-14.769532 14.769531zm0 0"/><path d="m137.847656 226.460938h-59.078125c-8.15625 0-14.769531 6.613281-14.769531 14.769531s6.613281 14.769531 14.769531 14.769531h59.078125c8.15625 0 14.769532-6.613281 14.769532-14.769531s-6.613282-14.769531-14.769532-14.769531zm0 0"/></symbol><symbol id="mail" viewBox="0 0 512 512"><title>mail</title><g> <g> <path d="M256,60c-57.897,0-105,47.103-105,105c0,35.943,18.126,69.015,48.487,88.467c31.003,19.863,69.06,21.974,104.426,5.703 c7.525-3.462,10.82-12.37,7.357-19.896c-3.462-7.525-12.369-10.82-19.896-7.358c-25.86,11.898-53.454,10.545-75.703-3.709 C193.961,214.298,181,190.669,181,165c0-41.355,33.645-75,75-75s75,33.645,75,75c0,8.271-6.729,15-15,15 c-7.558,0-14.618-5.732-14.998-14.772C301.001,165.152,301,165.076,301,165c0-24.813-20.187-45-45-45s-45,20.187-45,45 s20.187,45,45,45c11.516,0,22.031-4.353,29.999-11.494C293.966,205.648,304.483,210,316,210c24.813,0,45-20.187,45-45 C361,107.103,313.897,60,256,60z M270.789,167.406C269.631,174.535,263.45,180,256,180c-8.271,0-15-6.729-15-15s6.729-15,15-15 c7.691,0,14.04,5.82,14.895,13.285C270.671,164.648,270.634,166.035,270.789,167.406z"/> </g> </g><g> <g> <path d="M480.999,196.976c-0.004-3.879-1.566-7.756-4.393-10.583L421,130.787V15c0-8.284-6.716-15-15-15H106 c-8.284,0-15,6.716-15,15v115.787l-55.606,55.606c-0.052,0.052-0.096,0.11-0.147,0.163c-2.811,2.896-4.24,6.709-4.246,10.42 c0,0.01-0.001,0.019-0.001,0.029V467c0,24.845,20.216,45,45,45h360c24.839,0,45-20.207,45-45V197.005 C481,196.995,480.999,196.986,480.999,196.976z M421,173.213L444.787,197L421,220.787V173.213z M121,137.005 c0-0.003,0-0.007,0-0.01V30h270v106.995c0,0.003,0,0.007,0,0.01v113.782L309.787,332H202.213L121,250.787V137.005z M91,173.213 v47.574L67.213,197L91,173.213z M61,460.787V233.213L174.787,347L61,460.787z M82.214,482l119.999-120h107.574l119.999,120H82.214 z M451,460.787L337.213,347L451,233.213V460.787z"/> </g> </g></symbol><symbol id="phone" viewBox="0 0 511.999 511.999"><title>phone</title><path d="M498.827,377.633l-63.649-63.649c-17.548-17.547-46.102-17.547-63.649,0l-28.931,28.931 c-13.294,13.294-34.926,13.29-48.215,0.005l-125.4-125.507c-13.325-13.325-13.327-34.892,0-48.219 c4.66-4.66,18.041-18.041,28.931-28.931c17.471-17.47,17.715-45.935-0.017-63.665l-63.632-63.432 C116.717-4.381,88.164-4.381,70.663,13.12C57.567,26.102,53.343,30.29,47.471,36.111c-63.28,63.279-63.28,166.242-0.003,229.519 l198.692,198.796c63.428,63.429,166.088,63.434,229.521,0l23.146-23.145C516.375,423.733,516.375,395.181,498.827,377.633z M91.833,34.382c5.849-5.849,15.365-5.85,21.233,0.016l63.632,63.432c5.863,5.863,5.863,15.352,0,21.216l-10.609,10.608 l-84.81-84.81L91.833,34.382z M267.38,443.213L68.687,244.415c-48.958-48.958-51.649-125.833-8.276-178.006l84.564,84.564 c-22.22,25.189-21.294,63.572,2.787,87.653l125.396,125.501c0.001,0.001,0.003,0.003,0.004,0.004 c24.055,24.056,62.436,25.042,87.656,2.792l84.566,84.566C393.377,494.787,316.675,492.508,267.38,443.213z M477.612,420.065 l-10.609,10.609l-84.865-84.866l10.607-10.608c5.85-5.849,15.367-5.85,21.217,0l63.649,63.649 C483.461,404.699,483.461,414.217,477.612,420.065z"/></symbol></svg>